<?xml version="1.0" encoding="utf-8"?>
<!-- Generator: Adobe Illustrator 25.0.0, SVG Export Plug-In . SVG Version: 6.00 Build 0)  -->
<svg version="1.1" id="Livello_1" xmlns="http://www.w3.org/2000/svg" xmlns:xlink="http://www.w3.org/1999/xlink" x="0px" y="0px"
	 viewBox="0 0 24.7 24.7" style="enable-background:new 0 0 24.7 24.7;" xml:space="preserve">
<style type="text/css">
	.st0{fill:#304269;}
</style>
<g>
	<g>
		<g>
			<path class="st0" d="M14.1,17.3h-1.3c-2.4,0-4.3-1.9-4.3-4.3v-0.6c0-0.4,0.3-0.7,0.7-0.7h9c0.2,0,0.7,0,0.9-0.1
				c-0.2-0.4-0.5-1.5,0.4-2.6l0.1-0.1l0.1,0c0,0,0.8,0.2,1.3,1.6c0.4,0,1.2-0.1,1.8,0.4l0.1,0.1l0,0.1c0,0-0.4,1.4-2.2,1.5
				C19.8,15.3,17.1,17.3,14.1,17.3z M18.1,12l-9,0c-0.2,0-0.3,0.1-0.3,0.3v0.6c0,2.2,1.8,3.9,3.9,3.9h1.3c2.9,0,5.5-1.9,6.2-4.6
				l0-0.1h0.1c1.3,0,1.8-0.8,1.9-1.1c-0.6-0.4-1.6-0.3-1.6-0.3l-0.2,0l-0.1-0.2c-0.3-1-0.8-1.3-1-1.4c-0.8,1.1-0.2,2.2-0.2,2.2
				l0.1,0.1l-0.1,0.1C19.2,12.1,18.3,12,18.1,12z"/>
		</g>
		<g>
			<path class="st0" d="M10.7,11.5h-0.1c-0.5,0-0.9-0.4-0.9-0.9c0-0.5,0.4-0.9,0.9-0.9h0.1c0.5,0,0.9,0.4,0.9,0.9
				C11.5,11.2,11.1,11.5,10.7,11.5z M10.5,10.2c-0.3,0-0.5,0.2-0.5,0.5c0,0.3,0.2,0.5,0.5,0.5h0.1c0.3,0,0.5-0.2,0.5-0.5
				c0-0.3-0.2-0.5-0.5-0.5H10.5z"/>
		</g>
		<g>
			<path class="st0" d="M12.4,11.5h-0.1c-0.5,0-0.9-0.4-0.9-0.9c0-0.5,0.4-0.9,0.9-0.9h0.1c0.5,0,0.9,0.4,0.9,0.9
				C13.3,11.2,12.9,11.5,12.4,11.5z M12.3,10.2c-0.3,0-0.5,0.2-0.5,0.5c0,0.3,0.2,0.5,0.5,0.5h0.1c0.3,0,0.5-0.2,0.5-0.5
				c0-0.3-0.2-0.5-0.5-0.5H12.3z"/>
		</g>
		<g>
			<path class="st0" d="M14.2,11.5H14c-0.5,0-0.9-0.4-0.9-0.9c0-0.5,0.4-0.9,0.9-0.9h0.1c0.5,0,0.9,0.4,0.9,0.9
				C15,11.2,14.6,11.5,14.2,11.5z M14,10.2c-0.3,0-0.5,0.2-0.5,0.5c0,0.3,0.2,0.5,0.5,0.5h0.1c0.3,0,0.5-0.2,0.5-0.5
				c0-0.3-0.2-0.5-0.5-0.5H14z"/>
		</g>
		<g>
			<path class="st0" d="M15.9,11.5h-0.1c-0.5,0-0.9-0.4-0.9-0.9c0-0.5,0.4-0.9,0.9-0.9h0.1c0.5,0,0.9,0.4,0.9,0.9
				C16.8,11.2,16.4,11.5,15.9,11.5z M15.8,10.2c-0.3,0-0.5,0.2-0.5,0.5c0,0.3,0.2,0.5,0.5,0.5h0.1c0.3,0,0.5-0.2,0.5-0.5
				c0-0.3-0.2-0.5-0.5-0.5H15.8z"/>
		</g>
		<g>
			<path class="st0" d="M12.4,9.9h-0.1c-0.5,0-0.9-0.4-0.9-0.9c0-0.5,0.4-0.9,0.9-0.9h0.1c0.5,0,0.9,0.4,0.9,0.9
				C13.3,9.5,12.9,9.9,12.4,9.9z M12.3,8.5c-0.3,0-0.5,0.2-0.5,0.5c0,0.3,0.2,0.5,0.5,0.5h0.1c0.3,0,0.5-0.2,0.5-0.5
				c0-0.3-0.2-0.5-0.5-0.5H12.3z"/>
		</g>
		<g>
			<path class="st0" d="M14.2,9.9H14c-0.5,0-0.9-0.4-0.9-0.9c0-0.5,0.4-0.9,0.9-0.9h0.1C14.6,8.2,15,8.5,15,9
				C15,9.5,14.6,9.9,14.2,9.9z M14,8.5c-0.3,0-0.5,0.2-0.5,0.5c0,0.3,0.2,0.5,0.5,0.5h0.1c0.3,0,0.5-0.2,0.5-0.5
				c0-0.3-0.2-0.5-0.5-0.5H14z"/>
		</g>
		<g>
			<path class="st0" d="M16,9.9h-0.1C15.4,9.9,15,9.5,15,9c0-0.5,0.4-0.9,0.9-0.9H16c0.5,0,0.9,0.4,0.9,0.9
				C16.8,9.5,16.5,9.9,16,9.9z M15.8,8.5c-0.3,0-0.5,0.2-0.5,0.5c0,0.3,0.2,0.5,0.5,0.5H16c0.3,0,0.5-0.2,0.5-0.5
				c0-0.3-0.2-0.5-0.5-0.5H15.8z"/>
		</g>
		<g>
			<path class="st0" d="M16,8.2h-0.1c-0.5,0-0.9-0.4-0.9-0.9c0-0.5,0.4-0.9,0.9-0.9H16c0.5,0,0.9,0.4,0.9,0.9
				C16.8,7.8,16.5,8.2,16,8.2z M15.8,6.9c-0.3,0-0.5,0.2-0.5,0.5c0,0.3,0.2,0.5,0.5,0.5H16c0.3,0,0.5-0.2,0.5-0.5
				c0-0.3-0.2-0.5-0.5-0.5H15.8z"/>
		</g>
		<g>
			<path class="st0" d="M17.7,11.5h-0.1c-0.5,0-0.9-0.4-0.9-0.9c0-0.5,0.4-0.9,0.9-0.9h0.1c0.5,0,0.9,0.4,0.9,0.9
				C18.5,11.2,18.1,11.5,17.7,11.5z M17.5,10.2c-0.3,0-0.5,0.2-0.5,0.5c0,0.3,0.2,0.5,0.5,0.5h0.1c0.3,0,0.5-0.2,0.5-0.5
				c0-0.3-0.2-0.5-0.5-0.5H17.5z"/>
		</g>
	</g>
	<g>
		<path class="st0" d="M13.9,22.3c-3.3,0-6.4-1.6-8.4-4.2l0.3-0.2c1.9,2.6,4.9,4.1,8.1,4.1c5.5,0,10-4.5,10-10c0-5.5-4.5-10-10-10
			c-3.2,0-6.2,1.5-8.1,4.1L5.5,5.7c2-2.7,5.1-4.3,8.4-4.3c5.7,0,10.4,4.7,10.4,10.4S19.7,22.3,13.9,22.3z"/>
	</g>
	<g>
		<g>
			<path class="st0" d="M4.5,15.6H2.8L3,14.1c-0.1-0.1-0.2-0.3-0.2-0.5c0-0.4,0.4-0.8,0.8-0.8s0.8,0.4,0.8,0.8
				c0,0.2-0.1,0.4-0.2,0.5L4.5,15.6z M3.3,15.2H4l-0.2-1.3l0.1-0.1c0.1-0.1,0.1-0.2,0.1-0.3c0-0.2-0.2-0.4-0.4-0.4
				c-0.2,0-0.4,0.2-0.4,0.4c0,0.1,0,0.2,0.1,0.3l0.1,0.1L3.3,15.2z"/>
		</g>
		<g>
			<path class="st0" d="M6.9,16.8H0.4v-4.7h6.5V16.8z M0.8,16.4h5.8v-3.9H0.8V16.4z"/>
		</g>
		<g>
			<path class="st0" d="M6.4,12.4l-0.3-0.2l0.7-1.3C7.5,9.7,7,8.2,5.9,7.6C4.7,7,3.3,7.4,2.6,8.5L1.9,9.9L1.5,9.7l0.7-1.3
				C3,7,4.7,6.5,6.1,7.3C7.4,8,7.9,9.7,7.2,11.1L6.4,12.4z"/>
		</g>
	</g>
</g>
</svg>
