<?xml version="1.0" encoding="utf-8"?>
<!-- Generator: Adobe Illustrator 25.0.0, SVG Export Plug-In . SVG Version: 6.00 Build 0)  -->
<svg version="1.1" id="Livello_1" xmlns="http://www.w3.org/2000/svg" xmlns:xlink="http://www.w3.org/1999/xlink" x="0px" y="0px"
	 viewBox="0 0 24.7 24.7" style="enable-background:new 0 0 24.7 24.7;" xml:space="preserve">
<style type="text/css">
	.st0{fill:#304269;}
</style>
<g>
	<polygon class="st0" points="12.9,21.4 16,21.3 16,20.8 12.9,20.9 	"/>
	<polygon class="st0" points="18.9,21.3 19.9,21.3 19.9,20.8 18.9,20.8 	"/>
	<polygon class="st0" points="20.7,21.3 21.7,21.2 21.7,20.8 20.7,20.8 	"/>
	<polygon class="st0" points="12.9,16.4 16,16.4 16,15.9 12.9,15.9 	"/>
	<polygon class="st0" points="18.9,16.3 19.9,16.3 19.9,15.8 18.9,15.8 	"/>
	<polygon class="st0" points="20.7,16.3 21.7,16.3 21.7,15.8 20.7,15.8 	"/>
	<path class="st0" d="M11.7,13.6l11.5-0.1V8.7l-0.7,0c-0.3-0.9-0.6-1.8-1.1-2.6c0,0,0,0,0-0.1C19.5,2.8,16,0.6,12,0.7
		C8,0.7,4.5,3,2.5,6.3c0,0,0,0,0,0.1c-1,1.7-1.6,3.7-1.6,5.9s0.6,4.1,1.6,5.8c0,0,0,0.1,0.1,0.1c1.9,3.2,5.3,5.3,9.2,5.4v0l11.5-0.1
		v-4.7l-11.5,0.1v3.9c-1.1-1.2-2.2-2.8-3-4.6l3,0v0.5l11.5-0.1v-4.7l-11.5,0.1v3.8l-3.2,0c-0.7-1.7-1.2-3.5-1.2-5.5s0.5-3.8,1.2-5.5
		l6.9-0.1C15.8,7.2,16,8,16.2,8.8l-4.5,0L11.7,13.6L11.7,13.6z M12.2,19.3l10.6-0.1v3.8L12.2,23V19.3z M12.2,14.3l10.6-0.1v3.8
		L12.2,18V14.3z M11.5,23C8,22.9,4.9,21,3,18.2l5.2-0.1C9.1,20,10.3,21.7,11.5,23z M6.9,12.1c0,2,0.5,3.8,1.2,5.5l-5.3,0.1
		c-0.9-1.6-1.5-3.5-1.5-5.5s0.5-3.9,1.5-5.5L8,6.6C7.3,8.3,6.9,10.2,6.9,12.1z M8.3,6.2L3,6.2C4.9,3.3,8,1.3,11.5,1.1
		C10.3,2.5,9.1,4.2,8.3,6.2z M8.7,6.2c0.9-1.9,2.1-3.6,3.2-4.9c1.1,1.3,2.3,2.9,3.2,4.9L8.7,6.2z M12.5,1.1c3.5,0.1,6.6,2,8.4,4.9
		l-5.2,0.1C14.8,4.1,13.6,2.5,12.5,1.1z M15.9,6.5l5.3-0.1c0.4,0.7,0.7,1.5,1,2.3l-5.5,0.1C16.4,8,16.2,7.2,15.9,6.5z M12.2,9.3
		l10.6-0.1v3.8l-10.6,0.1V9.3z"/>
	<polygon class="st0" points="12.9,11.4 16,11.4 16,10.9 12.9,10.9 	"/>
	<polygon class="st0" points="18.9,11.3 19.9,11.3 19.9,10.9 18.9,10.9 	"/>
	<polygon class="st0" points="20.7,11.3 21.7,11.3 21.7,10.8 20.7,10.9 	"/>
</g>
</svg>
