<?xml version="1.0" encoding="utf-8"?>
<!-- Generator: Adobe Illustrator 25.0.0, SVG Export Plug-In . SVG Version: 6.00 Build 0)  -->
<svg version="1.1" id="Livello_1" xmlns="http://www.w3.org/2000/svg" xmlns:xlink="http://www.w3.org/1999/xlink" x="0px" y="0px"
	 viewBox="0 0 24.7 24.7" style="enable-background:new 0 0 24.7 24.7;" xml:space="preserve">
<style type="text/css">
	.st0{fill:#304269;}
</style>
<g>
	<g>
		<path class="st0" d="M22.4,19.4h-5.3l0.8-3.2c0.1-0.2,0.3-0.4,0.5-0.4h2.4c0.2,0,0.4,0.1,0.5,0.4L22.4,19.4z M17.7,19h4.3L21,16.3
			c0-0.1-0.1-0.1-0.2-0.1h-2.4c-0.1,0-0.1,0.1-0.2,0.1L17.7,19z"/>
	</g>
	<g>
		<g>
			<rect x="19.9" y="10.1" transform="matrix(0.7072 -0.707 0.707 0.7072 -1.7002 17.3623)" class="st0" width="0.4" height="1.2"/>
		</g>
		<g>
			<path class="st0" d="M18.4,16.1c-1.4-1.8-1.3-4.3,0.3-5.9l0.3,0.3c-1.5,1.5-1.6,3.8-0.3,5.4L18.4,16.1z"/>
		</g>
		<g>
			<path class="st0" d="M19.3,16.1L19,15.8l0.3-0.3c0.2-0.2,0.3-0.4,0.3-0.6c0-0.2-0.1-0.5-0.3-0.6l-0.2-0.2c-1-1-1-2.5,0-3.5
				l0.3,0.3c-0.8,0.8-0.8,2.2,0,3l0.2,0.2c0.5,0.5,0.5,1.3,0,1.8L19.3,16.1z"/>
		</g>
		<g>
			<path class="st0" d="M19.2,10.9c-0.2,0-0.3-0.1-0.4-0.2c-0.2-0.2-0.2-0.6,0-0.9c0.2-0.2,0.6-0.2,0.9,0c0.2,0.2,0.2,0.6,0,0.9
				C19.6,10.8,19.4,10.9,19.2,10.9z M19.2,10c-0.1,0-0.1,0-0.2,0.1c-0.1,0.1-0.1,0.2,0,0.3c0.1,0.1,0.2,0.1,0.3,0l0,0
				c0.1-0.1,0.1-0.2,0-0.3C19.4,10.1,19.3,10,19.2,10z"/>
		</g>
		<g>
			<path class="st0" d="M20.6,12.2c-0.2,0-0.3-0.1-0.4-0.2h0c-0.2-0.2-0.2-0.6,0-0.9c0.2-0.2,0.6-0.2,0.9,0c0.1,0.1,0.2,0.3,0.2,0.4
				c0,0.2-0.1,0.3-0.2,0.4C20.9,12.2,20.7,12.2,20.6,12.2z M20.4,11.8c0.1,0.1,0.2,0.1,0.3,0c0,0,0.1-0.1,0.1-0.2s0-0.1-0.1-0.2
				c-0.1-0.1-0.2-0.1-0.3,0C20.3,11.5,20.3,11.7,20.4,11.8z"/>
		</g>
		<g>
			
				<rect x="19.5" y="10.5" transform="matrix(0.7071 -0.7071 0.7071 0.7071 -2.1225 17.1901)" class="st0" width="0.4" height="1.3"/>
		</g>
		<g>
			<g>
				<path class="st0" d="M24,14.2c-0.2,0-0.3-0.1-0.3-0.3L23.3,12l0.4-0.1l0.3,1.4v-1.6c0-0.1-0.1-0.1-0.1-0.1h-3v-0.4h3
					c0.3,0,0.5,0.2,0.5,0.5v2.2C24.3,14,24.2,14.2,24,14.2z"/>
			</g>
			<g>
				<rect x="20.9" y="11.7" class="st0" width="2.8" height="0.4"/>
			</g>
			<g>
				<rect x="23.8" y="13.5" class="st0" width="0.1" height="0.4"/>
			</g>
		</g>
	</g>
	<g>
		<path class="st0" d="M13,22.1c-2.3,0-4.5-0.9-6.1-2.6l0.3-0.3c1.5,1.6,3.6,2.5,5.9,2.5c2.2,0,4.4-0.9,5.9-2.6l0.3,0.3
			C17.6,21.1,15.3,22.1,13,22.1z"/>
	</g>
	<g>
		<path class="st0" d="M20.3,10.1c-1.3-2.8-4.2-4.6-7.3-4.6s-6,1.8-7.3,4.6L5.3,9.9C6.7,7,9.7,5.1,13,5.1c3.2,0,6.2,1.9,7.7,4.8
			L20.3,10.1z"/>
	</g>
	<g>
		<path class="st0" d="M12.8,22c-2.2-2.3-3.5-5.3-3.5-8.4c0-3.2,1.2-6.1,3.4-8.4l0.3,0.3c-2.1,2.2-3.3,5.1-3.3,8.1
			c0,3.1,1.2,6,3.4,8.2L12.8,22z"/>
	</g>
	<g>
		<rect x="9.3" y="13.4" class="st0" width="8.3" height="0.4"/>
	</g>
	<g>
		<rect x="5.9" y="9.1" class="st0" width="14.2" height="0.4"/>
	</g>
	<g>
		<rect x="7.4" y="17.7" class="st0" width="8.2" height="0.4"/>
	</g>
	<g>
		<g>
			<path class="st0" d="M4.1,10.1L3.8,9.9c0-0.1,0.1-0.2,0.1-0.3l0.3,0.1C4.2,9.9,4.2,10,4.1,10.1z"/>
		</g>
		<g>
			<path class="st0" d="M4.6,9.2L4.2,9c0.1-0.2,0.2-0.3,0.2-0.4l0.3,0.2C4.7,8.9,4.6,9,4.6,9.2z M21.2,8.5c-0.1-0.1-0.2-0.3-0.3-0.4
				l0,0c-0.1-0.1-0.2-0.3-0.3-0.4l0.2-0.2l-0.2,0.2c-0.1-0.1-0.2-0.3-0.3-0.4l0.3-0.2c0.1,0.1,0.2,0.3,0.3,0.4l0,0
				c0.1,0.1,0.2,0.3,0.3,0.4L21.1,8l0.2-0.2c0.1,0.1,0.2,0.3,0.3,0.4L21.2,8.5z M5.3,7.9L5,7.7c0.1-0.1,0.2-0.3,0.3-0.4l0.3,0.2
				C5.5,7.6,5.4,7.8,5.3,7.9z M5.6,7.5L5.3,7.3C5.5,7.2,5.6,7,5.7,6.9l0.3,0.2L5.7,6.9C5.8,6.8,5.9,6.6,6,6.5l0.3,0.3
				C6.2,6.9,6.1,7,6,7.1l0,0C5.9,7.3,5.7,7.4,5.6,7.5z M19.7,6.6c-0.1-0.1-0.2-0.2-0.4-0.3l0,0c-0.1-0.1-0.3-0.2-0.4-0.3l0,0
				c-0.1-0.1-0.3-0.2-0.4-0.3l0.2-0.3c0.1,0.1,0.3,0.2,0.4,0.3l-0.1,0.1l0.1-0.1c0.1,0.1,0.3,0.2,0.4,0.3l-0.1,0.1L19.6,6
				c0.1,0.1,0.3,0.2,0.4,0.3L19.7,6.6z M7,6.1L6.8,5.8c0.1-0.1,0.3-0.2,0.4-0.3l0.2,0.3C7.3,5.9,7.2,6,7,6.1z M7.4,5.8L7.2,5.5
				c0.1-0.1,0.3-0.2,0.4-0.3l0,0C7.8,5.1,7.9,5,8.1,5l0.2,0.3C8.1,5.4,8,5.5,7.8,5.5L7.7,5.3l0.2,0.2C7.7,5.6,7.6,5.7,7.4,5.8z
				 M17.7,5.2c-0.1-0.1-0.3-0.2-0.4-0.2l0,0c-0.1-0.1-0.3-0.1-0.4-0.2L17,4.4c0.2,0.1,0.3,0.1,0.5,0.2v0c0.2,0.1,0.3,0.2,0.5,0.2
				L17.7,5.2z M9.1,4.8L9,4.5c0.2-0.1,0.3-0.1,0.5-0.2l0,0c0.2-0.1,0.3-0.1,0.5-0.2L10,4.3L9.9,4.1C10.1,4.1,10.3,4,10.4,4l0.1,0.4
				c-0.2,0-0.3,0.1-0.5,0.1l0,0C9.9,4.5,9.7,4.6,9.6,4.6v0C9.4,4.7,9.3,4.8,9.1,4.8z M16.8,4.7c-0.2-0.1-0.3-0.1-0.5-0.2l0.1-0.4
				c0.2,0.1,0.3,0.1,0.5,0.2L16.8,4.7z M15.4,4.3c-0.2,0-0.3-0.1-0.5-0.1v0c-0.2,0-0.3-0.1-0.5-0.1v0c-0.2,0-0.3,0-0.5-0.1l0-0.4
				c0.2,0,0.3,0,0.5,0.1l0,0.1l0-0.1c0.2,0,0.3,0.1,0.5,0.1v0c0.2,0,0.3,0.1,0.5,0.1L15.4,4.3z M11.5,4.1l-0.1-0.4
				c0.2,0,0.3-0.1,0.5-0.1v0c0.2,0,0.3,0,0.5,0v0c0.2,0,0.3,0,0.5,0L13,4c-0.2,0-0.3,0-0.5,0l0-0.2l0,0.2c-0.2,0-0.3,0-0.5,0v0
				C11.8,4.1,11.6,4.1,11.5,4.1z"/>
		</g>
		<g>
			<path class="st0" d="M21.9,9.8c0-0.1-0.1-0.2-0.1-0.3l0.3-0.2c0,0.1,0.1,0.2,0.1,0.3L21.9,9.8z"/>
		</g>
	</g>
	<g>
		<path class="st0" d="M13.1,22l-0.3-0.3c2.1-2.2,3.3-5.1,3.3-8.1c0-3.1-1.2-6-3.4-8.2l0.3-0.3c2.2,2.3,3.5,5.3,3.5,8.4
			C16.5,16.8,15.3,19.8,13.1,22z"/>
	</g>
	<g>
		<path class="st0" d="M3.6,19.3H2.2l0-0.2c0-0.1,0-0.3,0-0.4c0,0,0,0-0.1,0C2,18.8,1.9,18.9,1.8,19l-0.1,0.1l-1-1l0.1-0.1
			c0.1-0.1,0.2-0.2,0.3-0.3c0,0,0,0,0-0.1c-0.1,0-0.3,0-0.4,0l-0.2,0v-1.4l0.2,0c0.1,0,0.3,0,0.4,0c0,0,0,0,0,0
			c-0.1-0.1-0.2-0.2-0.3-0.3l-0.1-0.1l1-1L2,14.9l-0.2,0.3l-0.1-0.1l-0.5,0.5c0.1,0.1,0.2,0.2,0.2,0.3L1.5,16l-0.1,0.1
			c0,0.1-0.1,0.1-0.1,0.2l0,0.1l-0.1,0c-0.1,0-0.2,0-0.4,0v0.7c0.1,0,0.2,0,0.3,0l0.1,0l0,0.1c0,0.1,0.1,0.2,0.1,0.2l0.1,0.1
			l-0.1,0.1c-0.1,0.1-0.1,0.2-0.2,0.3l0.5,0.5c0.1-0.1,0.2-0.1,0.3-0.2L2,18.3l0.1,0.1c0.1,0,0.2,0.1,0.2,0.1l0.1,0l0,0.1
			c0,0.1,0,0.2,0,0.3h0.7c0-0.1,0-0.2,0-0.3l0-0.1l0.1,0c0.1,0,0.2-0.1,0.3-0.1l0.1-0.1l0.1,0.1c0.1,0.1,0.2,0.1,0.2,0.2l0.6-0.6
			l0.3,0.3l-0.9,0.9L4.1,19c-0.1-0.1-0.2-0.2-0.3-0.2c0,0-0.1,0-0.1,0c0,0.1,0,0.2,0,0.4L3.6,19.3z"/>
	</g>
	<g>
		<path class="st0" d="M2.9,18.1c-0.3,0-0.6-0.1-0.9-0.4c-0.2-0.2-0.4-0.5-0.4-0.9c0-0.3,0.1-0.6,0.4-0.9c0,0,0.1-0.1,0.1-0.1
			l0.2,0.3c0,0,0,0-0.1,0.1c-0.2,0.2-0.3,0.4-0.3,0.6c0,0.2,0.1,0.5,0.3,0.6c0.3,0.3,0.9,0.3,1.2,0l0.3,0.3
			C3.6,17.9,3.3,18.1,2.9,18.1z"/>
	</g>
	<g>
		<path class="st0" d="M6.4,18h-2l0-0.2c0-0.2,0-0.4-0.1-0.6c-0.1,0-0.1-0.1-0.2-0.1c-0.2,0.1-0.3,0.3-0.5,0.4l-0.1,0.1l-1.4-1.4
			l0.1-0.1c0.1-0.2,0.3-0.3,0.4-0.5c0-0.1-0.1-0.1-0.1-0.2c-0.2,0-0.4,0-0.7-0.1l-0.2,0v-2l0.2,0c0.2,0,0.5,0,0.7-0.1
			c0-0.1,0-0.1,0.1-0.2c-0.2-0.2-0.3-0.4-0.4-0.5l-0.1-0.1L3.5,11l0.1,0.1c0.2,0.1,0.4,0.3,0.5,0.4c0.1,0,0.1,0,0.2-0.1
			c0-0.2,0-0.5,0.1-0.7l0-0.2h2l0,0.2c0,0.2,0,0.4,0.1,0.7c0.1,0,0.1,0,0.2,0.1c0.2-0.1,0.3-0.3,0.5-0.4L7.3,11l1.4,1.4l-0.1,0.1
			c-0.1,0.2-0.3,0.3-0.4,0.5c0,0.1,0.1,0.1,0.1,0.2c0.2,0,0.4,0,0.6,0.1l0.2,0v2l-0.2,0c-0.2,0-0.4,0-0.6,0.1c0,0.1-0.1,0.2-0.1,0.2
			c0.1,0.2,0.3,0.3,0.4,0.5l0.1,0.1l-1.4,1.4l-0.1-0.1c-0.2-0.1-0.3-0.3-0.5-0.4c-0.1,0-0.2,0.1-0.2,0.1c0,0.2,0,0.4-0.1,0.6L6.4,18
			z M4.8,17.7H6c0-0.2,0-0.4,0.1-0.6l0-0.1l0.1,0c0.1,0,0.3-0.1,0.4-0.2l0.1-0.1l0.1,0.1C7,16.9,7.1,17,7.3,17.1l0.9-0.9
			c-0.1-0.1-0.2-0.3-0.4-0.4l-0.1-0.1l0.1-0.1c0.1-0.1,0.1-0.3,0.2-0.4l0-0.1l0.1,0c0.2,0,0.4,0,0.6-0.1v-1.3c-0.2,0-0.4,0-0.6-0.1
			l-0.1,0l0-0.1c0-0.1-0.1-0.3-0.2-0.4L7.7,13l0.1-0.1c0.1-0.2,0.3-0.3,0.4-0.5l-0.9-0.9c-0.2,0.1-0.3,0.3-0.5,0.4L6.7,12L6.6,12
			c-0.1-0.1-0.2-0.1-0.4-0.1l-0.1,0l0-0.1c0-0.2,0-0.4-0.1-0.6H4.8c0,0.2,0,0.4-0.1,0.6l0,0.1l-0.1,0c-0.1,0-0.2,0.1-0.4,0.1L4.1,12
			L4,12c-0.2-0.1-0.3-0.3-0.5-0.4l-0.9,0.9C2.7,12.6,2.9,12.8,3,13l0.1,0.1L3,13.2c-0.1,0.1-0.1,0.2-0.1,0.4l0,0.1l-0.1,0
			c-0.2,0-0.4,0-0.6,0.1V15c0.2,0,0.4,0,0.6,0.1l0.1,0l0,0.1c0,0.1,0.1,0.3,0.1,0.4l0.1,0.1L3,15.8c-0.1,0.2-0.3,0.3-0.4,0.5
			l0.9,0.9C3.7,17,3.8,16.9,4,16.8l0.1-0.1l0.1,0.1c0.1,0.1,0.3,0.1,0.4,0.2l0.1,0l0,0.1C4.7,17.3,4.7,17.5,4.8,17.7z M5.4,16.2
			c-0.5,0-0.9-0.2-1.3-0.5c-0.3-0.3-0.5-0.8-0.5-1.3c0-0.5,0.2-0.9,0.5-1.3c0.7-0.7,1.9-0.7,2.6,0c0.3,0.3,0.5,0.8,0.5,1.3
			c0,0.5-0.2,0.9-0.5,1.3C6.3,16,5.9,16.2,5.4,16.2z M5.4,12.9c-0.4,0-0.7,0.1-1,0.4C4.1,13.6,4,14,4,14.3c0,0.4,0.1,0.7,0.4,1
			c0.5,0.5,1.5,0.5,2,0c0.3-0.3,0.4-0.6,0.4-1c0-0.4-0.1-0.7-0.4-1C6.1,13.1,5.8,12.9,5.4,12.9z"/>
	</g>
</g>
</svg>
