<?xml version="1.0" encoding="utf-8"?>
<!-- Generator: Adobe Illustrator 24.0.0, SVG Export Plug-In . SVG Version: 6.00 Build 0)  -->
<svg version="1.1" id="Livello_1" xmlns="http://www.w3.org/2000/svg" xmlns:xlink="http://www.w3.org/1999/xlink" x="0px" y="0px"
	 viewBox="0 0 24 24" style="enable-background:new 0 0 24 24;" xml:space="preserve">
<style type="text/css">
	.st0{fill:#314269;}
</style>
<g>
	<g>
		<path class="st0" d="M22.58,18.71h-6.35c-0.09,0-0.17-0.08-0.17-0.17s0.08-0.17,0.17-0.17h6.35c0.6,0,1.08-0.48,1.08-1.08V4.41
			c0-0.6-0.48-1.08-1.08-1.08H1.42c-0.6,0-1.08,0.48-1.08,1.08v12.88c0,0.6,0.48,1.08,1.08,1.08h7.83c0.09,0,0.17,0.08,0.17,0.17
			s-0.08,0.17-0.17,0.17H1.42C0.64,18.71,0,18.07,0,17.29V4.41C0,3.63,0.64,3,1.42,3h21.16C23.36,3,24,3.63,24,4.41v12.88
			C24,18.07,23.36,18.71,22.58,18.71z"/>
	</g>
	<g>
		<path class="st0" d="M23.83,16.17h-7.3c-0.09,0-0.17-0.08-0.17-0.17c0-0.09,0.08-0.17,0.17-0.17h7.3c0.09,0,0.17,0.08,0.17,0.17
			C24,16.1,23.92,16.17,23.83,16.17z"/>
	</g>
	<g>
		<path class="st0" d="M8.23,16.17H0.17C0.08,16.17,0,16.1,0,16c0-0.09,0.08-0.17,0.17-0.17h8.06c0.09,0,0.17,0.08,0.17,0.17
			C8.4,16.1,8.32,16.17,8.23,16.17z"/>
	</g>
	<g>
		<path class="st0" d="M9.89,13.78H2.83c-0.09,0-0.17-0.08-0.17-0.17v-0.36c0-0.09,0.08-0.17,0.17-0.17s0.17,0.08,0.17,0.17v0.19
			h6.89c0.09,0,0.17,0.08,0.17,0.17C10.06,13.71,9.98,13.78,9.89,13.78z"/>
	</g>
	<g>
		<path class="st0" d="M15.81,13.78H12.8c-0.09,0-0.17-0.08-0.17-0.17c0-0.09,0.08-0.17,0.17-0.17h2.84V6.4H2.99v1.56
			c0,0.09-0.08,0.17-0.17,0.17S2.66,8.05,2.66,7.96V6.23c0-0.09,0.08-0.17,0.17-0.17h12.98c0.09,0,0.17,0.08,0.17,0.17v7.38
			C15.98,13.71,15.9,13.78,15.81,13.78z"/>
	</g>
	<g>
		<path class="st0" d="M15.72,7.65H3.64c-0.09,0-0.17-0.08-0.17-0.17c0-0.09,0.08-0.17,0.17-0.17h12.07c0.09,0,0.17,0.08,0.17,0.17
			C15.88,7.57,15.81,7.65,15.72,7.65z"/>
	</g>
	<g>
		<path class="st0" d="M3.8,7.18c-0.04,0-0.09-0.02-0.12-0.05L3.37,6.82c-0.07-0.07-0.07-0.17,0-0.24c0.07-0.07,0.17-0.07,0.24,0
			L3.92,6.9c0.07,0.07,0.07,0.17,0,0.24C3.89,7.17,3.84,7.18,3.8,7.18z"/>
	</g>
	<g>
		<path class="st0" d="M4.57,7.03H4.27c-0.09,0-0.17-0.08-0.17-0.17s0.08-0.17,0.17-0.17h0.29c0.09,0,0.17,0.08,0.17,0.17
			S4.66,7.03,4.57,7.03z"/>
	</g>
	<g>
		<path class="st0" d="M3.49,7.18c-0.04,0-0.09-0.02-0.12-0.05C3.3,7.07,3.3,6.96,3.37,6.9l0.31-0.31c0.07-0.07,0.17-0.07,0.24,0
			c0.07,0.07,0.07,0.17,0,0.24L3.61,7.14C3.57,7.17,3.53,7.18,3.49,7.18z"/>
	</g>
	<g>
		<path class="st0" d="M5.33,7.25c-0.09,0-0.17-0.08-0.17-0.17V6.64c0-0.09,0.08-0.17,0.17-0.17S5.5,6.54,5.5,6.64v0.44
			C5.5,7.17,5.42,7.25,5.33,7.25z"/>
	</g>
	<g>
		<path class="st0" d="M5.55,7.03H5.11c-0.09,0-0.17-0.08-0.17-0.17s0.08-0.17,0.17-0.17h0.44c0.09,0,0.17,0.08,0.17,0.17
			S5.64,7.03,5.55,7.03z"/>
	</g>
	<g>
		<path class="st0" d="M22.21,15.4h-5.58c-0.09,0-0.17-0.08-0.17-0.17s0.08-0.17,0.17-0.17h5.41V8.02h-6.06v1.56
			c0,0.09-0.08,0.17-0.17,0.17c-0.09,0-0.17-0.08-0.17-0.17V7.85c0-0.09,0.08-0.17,0.17-0.17h6.4c0.09,0,0.17,0.08,0.17,0.17v7.38
			C22.38,15.33,22.3,15.4,22.21,15.4z"/>
	</g>
	<g>
		<path class="st0" d="M22.11,9.27h-5.49c-0.09,0-0.17-0.08-0.17-0.17s0.08-0.17,0.17-0.17h5.49c0.09,0,0.17,0.08,0.17,0.17
			S22.21,9.27,22.11,9.27z"/>
	</g>
	<g>
		<path class="st0" d="M3.43,12.75H2.46c-0.09,0-0.16-0.07-0.17-0.15c-0.01-0.12-0.03-0.25-0.04-0.38
			c-0.01-0.01-0.03-0.01-0.04-0.02c-0.1,0.08-0.2,0.16-0.29,0.24c-0.07,0.05-0.16,0.05-0.23-0.01l-0.69-0.69
			C0.95,11.69,0.95,11.59,1,11.52c0.08-0.09,0.15-0.19,0.23-0.28c-0.01-0.02-0.01-0.03-0.02-0.05c-0.12-0.01-0.25-0.02-0.37-0.04
			c-0.09-0.01-0.15-0.08-0.15-0.17v-0.97c0-0.09,0.07-0.16,0.15-0.17C0.96,9.83,1.08,9.82,1.2,9.81c0.01-0.02,0.02-0.04,0.03-0.07
			C1.15,9.66,1.07,9.57,1,9.48C0.95,9.41,0.95,9.31,1.01,9.25L1.7,8.56C1.76,8.5,1.86,8.5,1.93,8.55C2.01,8.62,2.1,8.69,2.19,8.77
			c0.03-0.01,0.05-0.02,0.08-0.03C2.27,8.62,2.28,8.51,2.3,8.4C2.3,8.31,2.38,8.25,2.46,8.25l0.97,0c0.09,0,0.16,0.07,0.17,0.15
			c0.01,0.11,0.02,0.22,0.03,0.34c0.03,0.01,0.05,0.02,0.08,0.03C3.8,8.69,3.89,8.62,3.97,8.55C4.04,8.5,4.14,8.5,4.2,8.56
			l0.69,0.69C4.95,9.31,4.95,9.41,4.9,9.48C4.82,9.57,4.75,9.66,4.67,9.75C4.68,9.77,4.69,9.79,4.7,9.81
			c0.12,0.01,0.23,0.02,0.35,0.03C5.13,9.85,5.2,9.93,5.2,10.01v0.97c0,0.09-0.07,0.16-0.15,0.17c-0.12,0.01-0.24,0.02-0.37,0.04
			c-0.01,0.02-0.01,0.03-0.02,0.05c0.08,0.1,0.16,0.19,0.23,0.28c0.05,0.07,0.05,0.16-0.01,0.23L4.2,12.43
			c-0.06,0.06-0.16,0.07-0.23,0.01c-0.1-0.08-0.2-0.16-0.29-0.24c-0.01,0.01-0.03,0.01-0.04,0.02c-0.01,0.13-0.02,0.26-0.04,0.38
			C3.59,12.68,3.52,12.75,3.43,12.75z M2.62,12.41h0.67c0.01-0.11,0.02-0.22,0.03-0.33c0.01-0.07,0.05-0.13,0.12-0.15
			c0.07-0.02,0.14-0.05,0.2-0.08c0.06-0.03,0.13-0.02,0.18,0.02c0.08,0.07,0.17,0.14,0.25,0.21l0.47-0.47
			c-0.07-0.08-0.13-0.16-0.2-0.24c-0.04-0.05-0.05-0.13-0.02-0.19c0.04-0.07,0.07-0.14,0.09-0.21c0.02-0.06,0.08-0.11,0.15-0.11
			c0.11-0.01,0.21-0.02,0.31-0.03v-0.67c-0.1-0.01-0.2-0.02-0.3-0.03c-0.07-0.01-0.13-0.05-0.15-0.12C4.39,9.94,4.36,9.87,4.32,9.79
			C4.29,9.73,4.3,9.66,4.35,9.61c0.06-0.08,0.13-0.15,0.19-0.23L4.07,8.91C3.99,8.97,3.92,9.03,3.85,9.1
			C3.79,9.14,3.72,9.15,3.66,9.12C3.58,9.08,3.5,9.04,3.42,9.02C3.36,9,3.31,8.94,3.31,8.87C3.3,8.77,3.29,8.68,3.28,8.59l-0.67,0
			C2.61,8.68,2.6,8.77,2.59,8.87C2.58,8.94,2.54,9,2.47,9.02c-0.08,0.03-0.16,0.06-0.23,0.1C2.18,9.15,2.11,9.14,2.05,9.1
			C1.98,9.03,1.91,8.97,1.83,8.91L1.36,9.38c0.06,0.08,0.13,0.15,0.19,0.23C1.6,9.66,1.6,9.73,1.57,9.79
			c-0.04,0.07-0.07,0.15-0.09,0.23c-0.02,0.07-0.08,0.11-0.15,0.12c-0.1,0.01-0.2,0.02-0.3,0.03v0.67c0.1,0.01,0.21,0.02,0.31,0.03
			c0.07,0.01,0.12,0.05,0.15,0.11c0.02,0.07,0.05,0.14,0.09,0.21c0.03,0.06,0.02,0.13-0.02,0.19c-0.07,0.08-0.14,0.16-0.2,0.24
			l0.47,0.47c0.08-0.07,0.17-0.14,0.25-0.21c0.05-0.04,0.12-0.05,0.18-0.02c0.07,0.03,0.13,0.06,0.2,0.08
			c0.06,0.02,0.11,0.08,0.12,0.15C2.6,12.19,2.61,12.3,2.62,12.41z"/>
	</g>
	<g>
		<path class="st0" d="M14.81,21.73h-3.52c-0.09,0-0.17-0.08-0.17-0.17v-1.55c-0.61-0.26-1.05-0.84-1.12-1.51l-0.06-0.57
			c-0.06-0.58-0.32-1.13-0.74-1.54L8.1,15.29c-0.16-0.16-0.25-0.37-0.25-0.59c0-0.22,0.09-0.43,0.25-0.59
			c0.33-0.33,0.86-0.33,1.19,0l1.17,1.17v-4.16c0-0.46,0.38-0.84,0.84-0.84s0.84,0.38,0.84,0.84v2.95c0.14-0.1,0.31-0.17,0.5-0.17
			c0.36,0,0.67,0.23,0.79,0.55c0.15-0.13,0.34-0.21,0.55-0.21c0.44,0,0.79,0.33,0.84,0.76c0.14-0.11,0.32-0.17,0.51-0.17
			c0.46,0,0.84,0.38,0.84,0.84v0.35l-0.04,1.2c-0.03,0.98-0.43,1.89-1.13,2.58v1.77C14.98,21.66,14.91,21.73,14.81,21.73z
			 M11.46,21.4h3.18v-1.67c0-0.05,0.02-0.09,0.05-0.12c0.66-0.63,1.05-1.48,1.08-2.4l0.04-1.2l0-0.34c0-0.28-0.22-0.5-0.5-0.5
			c-0.28,0-0.5,0.22-0.5,0.5c0,0.09-0.08,0.17-0.17,0.17c-0.09,0-0.17-0.08-0.17-0.17v-0.59c0-0.28-0.22-0.5-0.5-0.5
			s-0.5,0.22-0.5,0.5c0,0.09-0.08,0.17-0.17,0.17s-0.17-0.08-0.17-0.17v-0.34c0-0.28-0.22-0.5-0.5-0.5c-0.28,0-0.5,0.22-0.5,0.5
			c0,0.09-0.08,0.17-0.17,0.17c-0.09,0-0.17-0.08-0.17-0.17v-3.62c0-0.28-0.22-0.5-0.5-0.5s-0.5,0.22-0.5,0.5v4.56
			c0,0.07-0.04,0.13-0.1,0.16c-0.06,0.03-0.14,0.01-0.18-0.04l-1.46-1.46c-0.2-0.2-0.51-0.2-0.71,0c-0.09,0.09-0.15,0.22-0.15,0.35
			c0,0.13,0.05,0.26,0.15,0.35l1.11,1.11c0.47,0.47,0.76,1.09,0.83,1.75l0.06,0.57c0.06,0.58,0.46,1.08,1.01,1.27
			c0.07,0.02,0.11,0.09,0.11,0.16V21.4z"/>
	</g>
</g>
</svg>
