<?xml version="1.0" encoding="utf-8"?>
<!-- Generator: Adobe Illustrator 25.0.0, SVG Export Plug-In . SVG Version: 6.00 Build 0)  -->
<svg version="1.1" id="Livello_1" xmlns="http://www.w3.org/2000/svg" xmlns:xlink="http://www.w3.org/1999/xlink" x="0px" y="0px"
	 viewBox="0 0 24.7 24.7" style="enable-background:new 0 0 24.7 24.7;" xml:space="preserve">
<style type="text/css">
	.st0{fill:#304269;}
</style>
<g>
	<g>
		<path class="st0" d="M15.7,21.9l-0.1-0.4c4.4-1.4,7.4-5.4,7.4-10c0-1.1-0.2-2.1-0.5-3.1l0.4-0.1c0.3,1,0.5,2.1,0.5,3.2
			C23.4,16.3,20.3,20.5,15.7,21.9z"/>
	</g>
	<g>
		<path class="st0" d="M5,4.1L4.7,3.8c2.1-2.1,4.8-3.2,7.7-3.2c2.7,0,5.3,1,7.4,2.8l-0.3,0.3C17.6,2,15.1,1,12.4,1
			C9.6,1,7,2.1,5,4.1z"/>
	</g>
	<g>
		<path class="st0" d="M9.8,22.1c-4.9-1.2-8.3-5.6-8.3-10.6c0-1,0.1-1.9,0.4-2.9l0.4,0.1C2.1,9.6,2,10.6,2,11.5
			c0,4.8,3.3,9,7.9,10.2L9.8,22.1z"/>
	</g>
	<g>
		<path class="st0" d="M3.2,8C2.2,8,1.3,7.1,1.3,6.1s0.9-1.9,1.9-1.9S5.1,5,5.1,6.1S4.3,8,3.2,8z M3.2,4.6c-0.8,0-1.5,0.7-1.5,1.5
			s0.7,1.5,1.5,1.5s1.5-0.7,1.5-1.5S4,4.6,3.2,4.6z"/>
	</g>
	<g>
		<path class="st0" d="M16,15c-1.1,0-2-0.9-2-2c0-1.1,0.9-2,2-2s2,0.9,2,2C18,14.1,17.1,15,16,15z M16,11.4c-0.9,0-1.6,0.7-1.6,1.6
			c0,0.9,0.7,1.6,1.6,1.6s1.6-0.7,1.6-1.6C17.6,12.1,16.9,11.4,16,11.4z"/>
	</g>
	<g>
		<path class="st0" d="M10.4,13.9c-0.5,0-1-0.4-1-1c0-0.5,0.4-1,1-1c0.5,0,1,0.4,1,1C11.3,13.5,10.9,13.9,10.4,13.9z M10.4,12.5
			c-0.3,0-0.5,0.2-0.5,0.5s0.2,0.5,0.5,0.5s0.5-0.2,0.5-0.5S10.7,12.5,10.4,12.5z"/>
	</g>
	<g>
		<path class="st0" d="M8.1,19.6c-0.5,0-1-0.4-1-1s0.4-1,1-1c0.5,0,1,0.4,1,1S8.7,19.6,8.1,19.6z M8.1,18.2c-0.3,0-0.5,0.2-0.5,0.5
			c0,0.3,0.2,0.5,0.5,0.5s0.5-0.2,0.5-0.5C8.6,18.4,8.4,18.2,8.1,18.2z"/>
	</g>
	<g>
		<path class="st0" d="M11.6,6.4c-0.5,0-1-0.4-1-1s0.4-1,1-1c0.5,0,1,0.4,1,1S12.1,6.4,11.6,6.4z M11.6,5c-0.3,0-0.5,0.2-0.5,0.5
			c0,0.3,0.2,0.5,0.5,0.5s0.5-0.2,0.5-0.5C12.1,5.2,11.9,5,11.6,5z"/>
	</g>
	<g>
		<path class="st0" d="M21.5,7.7c-1.1,0-1.9-0.9-1.9-1.9s0.9-1.9,1.9-1.9c1.1,0,1.9,0.9,1.9,1.9S22.5,7.7,21.5,7.7z M21.5,4.3
			C20.7,4.3,20,5,20,5.8s0.7,1.5,1.5,1.5c0.8,0,1.5-0.7,1.5-1.5S22.3,4.3,21.5,4.3z"/>
	</g>
	<g>
		<path class="st0" d="M12.8,24.1c-1.1,0-1.9-0.9-1.9-1.9c0-1.1,0.9-1.9,1.9-1.9c1.1,0,1.9,0.9,1.9,1.9
			C14.7,23.3,13.9,24.1,12.8,24.1z M12.8,20.7c-0.8,0-1.5,0.7-1.5,1.5c0,0.8,0.7,1.5,1.5,1.5s1.5-0.7,1.5-1.5
			C14.3,21.4,13.6,20.7,12.8,20.7z"/>
	</g>
	<g>
		<rect x="9.5" y="3.7" transform="matrix(0.5156 -0.8568 0.8568 0.5156 -3.2788 12.8142)" class="st0" width="0.5" height="11.3"/>
	</g>
	<g>
		<rect x="4.8" y="5.2" class="st0" width="5.9" height="0.5"/>
	</g>
	<g>
		<rect x="12.4" y="5.2" class="st0" width="7.4" height="0.5"/>
	</g>
	<g>
		<rect x="9.7" y="9" transform="matrix(0.7951 -0.6064 0.6064 0.7951 -2.4417 11.1736)" class="st0" width="11.2" height="0.5"/>
	</g>
	<g>
		
			<rect x="9.9" y="18.3" transform="matrix(0.5661 -0.8244 0.8244 0.5661 -12.1206 17.0474)" class="st0" width="0.5" height="3.6"/>
	</g>
	<g>
		<rect x="5.7" y="7.2" transform="matrix(0.9443 -0.3292 0.3292 0.9443 -3.8714 2.6635)" class="st0" width="0.5" height="11.2"/>
	</g>
	<g>
		<rect x="11.2" y="13.6" transform="matrix(0.967 -0.2546 0.2546 0.967 -3.9894 3.4767)" class="st0" width="0.5" height="7.1"/>
	</g>
	<g>
		<rect x="7" y="5.9" transform="matrix(0.6974 -0.7167 0.7167 0.6974 -4.7855 8.0834)" class="st0" width="0.5" height="7.7"/>
	</g>
	<g>
		<rect x="19.4" y="12.9" transform="matrix(0.6232 -0.782 0.782 0.6232 -4.6918 21.1363)" class="st0" width="0.5" height="5.1"/>
	</g>
	<g>
		<rect x="16.2" y="9.3" transform="matrix(0.5891 -0.8081 0.8081 0.5891 0.1118 19.2267)" class="st0" width="5.6" height="0.5"/>
	</g>
	<g>
		<rect x="11.6" y="17.6" transform="matrix(0.31 -0.9507 0.9507 0.31 -6.7121 26.3269)" class="st0" width="6.4" height="0.5"/>
	</g>
</g>
</svg>
