<?xml version="1.0" encoding="utf-8"?>
<!-- Generator: Adobe Illustrator 25.0.0, SVG Export Plug-In . SVG Version: 6.00 Build 0)  -->
<svg version="1.1" id="Livello_1" xmlns="http://www.w3.org/2000/svg" xmlns:xlink="http://www.w3.org/1999/xlink" x="0px" y="0px"
	 viewBox="0 0 24.7 24.7" style="enable-background:new 0 0 24.7 24.7;" xml:space="preserve">
<style type="text/css">
	.st0{fill:#304269;}
</style>
<g>
	<g>
		<path class="st0" d="M23.1,18c-0.3,0-0.6-0.1-0.9-0.4c-0.2-0.2-0.4-0.6-0.4-0.9c0-0.2,0-0.3-0.1-0.4l-0.1-0.1
			c-0.2-0.2-0.5-0.2-0.7,0l-1.4,1.4c-0.5,0.5-1.3,0.5-1.8,0l-0.9-0.9c-0.1-0.1-0.1-0.3-0.1-0.4c0-0.1,0.2-0.2,0.3-0.3
			c0.3-0.1,0.6-0.2,0.9-0.5c0.4-0.4,0.6-0.9,0.5-1.4c-0.1-0.5-0.4-1-0.8-1.3c-0.5-0.3-1.2-0.3-1.7,0c-0.4,0.3-0.7,0.7-0.8,1.1
			c0,0.2-0.1,0.3-0.3,0.3c-0.1,0-0.3,0-0.4-0.1l-0.8-0.8c-0.2-0.2-0.4-0.6-0.4-0.9c0-0.3,0.1-0.7,0.4-0.9L14,11
			c0.2-0.2,0.4-0.3,0.7-0.2c0.2,0,0.4,0.2,0.5,0.4c0.1,0.2,0.2,0.3,0.3,0.5c0.4,0.4,0.9,0.6,1.4,0.5c0.5-0.1,1-0.4,1.3-0.8
			c0.3-0.5,0.3-1.2,0-1.7c-0.2-0.3-0.4-0.5-0.7-0.7c-0.2-0.1-0.4-0.3-0.4-0.6c0-0.2,0-0.5,0.2-0.6l0.5-0.5c0.5-0.5,1.3-0.5,1.8,0
			L21,8.5c0.2,0.2,0.5,0.2,0.7,0l0.1-0.1c0.1-0.1,0.1-0.2,0.1-0.4c0-0.4,0.1-0.7,0.4-0.9c0.3-0.3,0.6-0.4,1-0.4
			c0.4,0,0.7,0.2,0.9,0.6c0.3,0.4,0.3,0.9,0,1.3C23.9,9,23.5,9.2,23,9.2c-0.1,0-0.3,0-0.4,0.1l-0.1,0.1c-0.2,0.2-0.2,0.5,0,0.7
			l1.4,1.4c0.2,0.2,0.4,0.6,0.4,0.9c0,0.3-0.1,0.7-0.4,0.9l-1.4,1.4c-0.2,0.2-0.2,0.5,0,0.7l0.1,0.1c0.1,0.1,0.3,0.1,0.4,0.1
			c0.4,0,0.9,0.2,1.1,0.6c0.3,0.4,0.2,0.9,0,1.3l0,0c-0.2,0.3-0.5,0.5-0.9,0.6C23.2,18,23.1,18,23.1,18z M21.3,15.7
			c0.2,0,0.4,0.1,0.6,0.2l0.1,0.1c0.2,0.2,0.3,0.4,0.2,0.7c0,0.2,0.1,0.5,0.2,0.6c0.2,0.2,0.4,0.3,0.7,0.2c0.3,0,0.5-0.2,0.6-0.4
			l0,0c0.2-0.3,0.2-0.6,0-0.9c-0.2-0.3-0.4-0.4-0.8-0.4c-0.3,0-0.5-0.1-0.7-0.2l-0.1-0.1c-0.3-0.3-0.3-0.9,0-1.2l1.4-1.4
			c0.3-0.3,0.3-0.9,0-1.3l-1.4-1.4c-0.3-0.3-0.3-0.9,0-1.2l0.1-0.1c0.2-0.2,0.4-0.3,0.7-0.2c0.3,0,0.6-0.1,0.8-0.4
			c0.2-0.3,0.2-0.6,0-0.9c-0.1-0.2-0.4-0.4-0.6-0.4c-0.3,0-0.5,0.1-0.7,0.2c-0.2,0.2-0.3,0.4-0.2,0.6c0,0.3-0.1,0.5-0.2,0.7
			l-0.1,0.1c-0.3,0.3-0.9,0.3-1.2,0l-1.4-1.4c-0.3-0.3-0.9-0.3-1.3,0L17.6,8c-0.1,0.1-0.1,0.2-0.1,0.3c0,0.1,0.1,0.2,0.2,0.3
			c0.4,0.2,0.7,0.5,0.9,0.8c0.4,0.7,0.4,1.5,0,2.1c-0.2,0.4-0.6,0.7-0.9,0.8c0.1,0,0.1,0.1,0.2,0.1c0.6,0.3,0.9,0.9,1,1.6
			c0.1,0.6-0.1,1.3-0.6,1.7c-0.3,0.3-0.7,0.5-1.1,0.6l0.9,0.9c0.3,0.4,0.9,0.3,1.3,0l1.4-1.4C20.9,15.8,21.1,15.7,21.3,15.7z
			 M14.5,11.2c-0.1,0-0.2,0-0.3,0.1l-0.5,0.5c-0.3,0.3-0.3,0.9,0,1.3l0.8,0.8l0.1,0c0.1-0.6,0.5-1.1,1-1.4c0.1,0,0.1-0.1,0.2-0.1
			c-0.2-0.1-0.4-0.2-0.6-0.4c-0.2-0.2-0.3-0.4-0.4-0.6C14.8,11.2,14.7,11.2,14.5,11.2C14.6,11.2,14.6,11.2,14.5,11.2z"/>
	</g>
	<g>
		<path class="st0" d="M16.7,11.6c-0.3,0-0.6-0.1-0.9-0.4c-0.2-0.2-0.4-0.6-0.4-0.9c0-0.2,0-0.3-0.1-0.4l-0.1-0.1
			c-0.2-0.2-0.5-0.2-0.7,0l-1.4,1.4c-0.5,0.5-1.3,0.5-1.8,0l-0.9-0.9c-0.1-0.1-0.1-0.3-0.1-0.4c0-0.1,0.2-0.2,0.3-0.3
			c0.3-0.1,0.6-0.2,0.9-0.5c0.4-0.4,0.6-0.9,0.5-1.4c-0.1-0.5-0.4-1-0.8-1.3c-0.5-0.3-1.2-0.3-1.7,0C9.1,6.7,8.8,7.1,8.7,7.5
			c0,0.2-0.1,0.3-0.3,0.3c-0.1,0-0.3,0-0.4-0.1L7.1,6.9c-0.5-0.5-0.5-1.3,0-1.8l4.3-4.3c0.5-0.5,1.3-0.5,1.8,0l1.4,1.4
			c0.2,0.2,0.5,0.2,0.7,0l0.1-0.1c0.1-0.1,0.1-0.2,0.1-0.4c0-0.4,0.1-0.7,0.4-0.9c0.3-0.3,0.6-0.4,1-0.4c0.4,0,0.7,0.2,0.9,0.6
			c0.3,0.4,0.3,0.9,0,1.3c-0.2,0.4-0.7,0.6-1.1,0.6c-0.2,0-0.3,0-0.4,0.1l-0.1,0.1C16.1,3.2,16,3.3,16,3.4c0,0.1,0,0.2,0.1,0.3
			l1.4,1.4c0.5,0.5,0.5,1.3,0,1.8l-1.4,1.4c-0.2,0.2-0.2,0.5,0,0.7L16.3,9c0.1,0.1,0.2,0.1,0.4,0.1c0.4,0,0.9,0.2,1.1,0.6
			c0.3,0.4,0.2,0.9,0,1.3c-0.2,0.3-0.5,0.5-0.9,0.6C16.8,11.6,16.7,11.6,16.7,11.6z M14.9,9.3c0.2,0,0.4,0.1,0.6,0.2l0.1,0.1
			c0.2,0.2,0.3,0.4,0.2,0.7c0,0.2,0.1,0.5,0.2,0.6c0.2,0.2,0.4,0.3,0.7,0.2c0.3,0,0.5-0.2,0.6-0.4l0,0c0.2-0.3,0.2-0.6,0-0.9
			c-0.2-0.3-0.4-0.4-0.8-0.4c-0.3,0-0.5-0.1-0.7-0.2l-0.1-0.1c-0.2-0.2-0.2-0.4-0.2-0.6c0-0.2,0.1-0.4,0.2-0.6l1.4-1.4
			c0.3-0.3,0.3-0.9,0-1.3L15.9,4c-0.2-0.2-0.2-0.4-0.2-0.6c0-0.2,0.1-0.4,0.2-0.6L16,2.7c0.2-0.2,0.4-0.3,0.7-0.2
			c0.3,0,0.6-0.1,0.8-0.4c0.2-0.3,0.2-0.6,0-0.9c-0.1-0.2-0.4-0.4-0.6-0.4c-0.3,0-0.5,0.1-0.7,0.2c-0.2,0.2-0.3,0.4-0.2,0.6
			c0,0.3-0.1,0.5-0.2,0.7l-0.1,0.1c-0.3,0.3-0.9,0.3-1.2,0L13,1.1c-0.3-0.3-0.9-0.4-1.3,0L7.4,5.4C7,5.7,7,6.3,7.4,6.6l0.8,0.8
			l0.1,0c0.1-0.6,0.5-1.1,1-1.4c0.7-0.4,1.5-0.4,2.1,0c0.6,0.4,0.9,0.9,1,1.6c0.1,0.6-0.1,1.3-0.6,1.7c-0.3,0.3-0.7,0.5-1.1,0.6
			l0.9,0.9c0.3,0.3,0.9,0.3,1.3,0l1.4-1.4C14.5,9.4,14.7,9.3,14.9,9.3z"/>
	</g>
	<g>
		<g>
			<path class="st0" d="M6,17.9c-0.3,0-0.7-0.1-0.9-0.4l-4.3-4.3c-0.2-0.2-0.4-0.6-0.4-0.9c0-0.3,0.1-0.7,0.4-0.9l1.4-1.4
				C2.2,10,2.3,9.9,2.3,9.7s0-0.2-0.1-0.3L2,9.3C1.9,9.2,1.8,9.2,1.6,9.2C1.3,9.2,1,9.1,0.7,8.8c-0.3-0.3-0.4-0.6-0.4-1
				s0.2-0.7,0.6-0.9c0.4-0.3,0.9-0.3,1.3,0C2.6,7.1,2.8,7.5,2.8,8c0,0.2,0,0.3,0.1,0.4L3,8.5c0.2,0.2,0.5,0.2,0.7,0l1.4-1.4
				c0.5-0.5,1.3-0.5,1.8,0l1.4,1.4c0.2,0.2,0.5,0.2,0.7,0L9,8.4C9.1,8.3,9.1,8.2,9.1,8c0-0.4,0.2-0.9,0.6-1.1c0.4-0.3,0.9-0.2,1.3,0
				c0.3,0.2,0.5,0.5,0.6,0.9c0,0.4-0.1,0.7-0.4,1c-0.2,0.2-0.6,0.4-0.9,0.4c-0.2,0-0.3,0-0.4,0.1L9.8,9.4C9.7,9.5,9.7,9.6,9.7,9.7
				s0,0.2,0.1,0.3l1.4,1.4c0.2,0.2,0.4,0.6,0.4,0.9c0,0.3-0.1,0.7-0.4,0.9l-0.5,0.5c-0.2,0.2-0.4,0.2-0.6,0.2
				c-0.2,0-0.5-0.2-0.6-0.4c-0.1-0.3-0.4-0.6-0.7-0.7c-0.5-0.3-1.2-0.3-1.7,0c-0.5,0.3-0.8,0.8-0.8,1.3c-0.1,0.5,0.1,1,0.5,1.4
				c0.1,0.1,0.3,0.3,0.5,0.3c0.2,0.1,0.4,0.3,0.4,0.5c0,0.2,0,0.5-0.2,0.7l-0.5,0.5C6.6,17.8,6.3,17.9,6,17.9z M1.7,8.8
				c0.2,0,0.5,0.1,0.6,0.2l0.1,0.1c0.2,0.2,0.2,0.4,0.2,0.6s-0.1,0.4-0.2,0.6L1,11.7C0.7,12,0.7,12.6,1,13l4.3,4.3
				c0.3,0.3,0.9,0.3,1.3,0l0.5-0.5c0.1-0.1,0.1-0.2,0.1-0.3c0-0.1,0-0.2-0.2-0.2c-0.2-0.1-0.4-0.2-0.6-0.4c-0.5-0.5-0.7-1.1-0.6-1.7
				c0.1-0.6,0.4-1.2,1-1.6c0.6-0.4,1.5-0.4,2.1,0c0.4,0.2,0.7,0.5,0.8,0.9c0.1,0.1,0.2,0.2,0.3,0.2c0.1,0,0.2,0,0.3-0.1l0.5-0.5
				c0.3-0.3,0.3-0.9,0-1.3l-1.4-1.4C9.4,10.2,9.3,10,9.3,9.7s0.1-0.4,0.2-0.6L9.6,9c0.2-0.2,0.4-0.3,0.7-0.2c0.2,0,0.5-0.1,0.6-0.2
				c0.2-0.2,0.3-0.4,0.2-0.7c0-0.3-0.2-0.5-0.4-0.6c-0.3-0.2-0.6-0.2-0.9,0C9.6,7.4,9.5,7.7,9.5,8c0,0.3-0.1,0.5-0.2,0.7L9.2,8.8
				C8.8,9.1,8.3,9.1,8,8.8L6.6,7.4c-0.3-0.3-0.9-0.3-1.3,0L4,8.8c-0.3,0.3-0.9,0.3-1.2,0L2.7,8.7C2.5,8.5,2.4,8.2,2.4,8
				c0-0.3-0.1-0.6-0.4-0.8C1.8,7,1.4,7.1,1.1,7.2l0,0C0.9,7.4,0.8,7.6,0.7,7.9c0,0.3,0.1,0.5,0.2,0.7C1.1,8.7,1.4,8.8,1.7,8.8
				C1.6,8.8,1.6,8.8,1.7,8.8z"/>
		</g>
		<g>
			<path class="st0" d="M12.3,24.3c-0.3,0-0.7-0.1-0.9-0.4l-4.3-4.3c-0.2-0.2-0.4-0.6-0.4-0.9c0-0.3,0.1-0.7,0.4-0.9l1.4-1.4
				c0.2-0.2,0.2-0.5,0-0.7l-0.1-0.1c-0.1-0.1-0.2-0.1-0.4-0.1c-0.4,0-0.7-0.1-0.9-0.4c-0.3-0.3-0.4-0.6-0.4-1c0-0.4,0.2-0.7,0.6-0.9
				l0,0c0.4-0.3,0.9-0.3,1.3,0c0.4,0.2,0.6,0.6,0.6,1.1c0,0.1,0,0.3,0.1,0.4l0.1,0.1c0.2,0.2,0.5,0.2,0.7,0l1.4-1.4
				c0.5-0.5,1.3-0.5,1.8,0l1.4,1.4c0.2,0.2,0.5,0.2,0.7,0l0.1-0.1c0.1-0.1,0.1-0.3,0.1-0.4c0-0.4,0.2-0.9,0.6-1.1
				c0.4-0.3,0.9-0.2,1.3,0c0.3,0.2,0.5,0.5,0.6,0.9c0,0.4-0.1,0.7-0.4,1c-0.2,0.2-0.6,0.4-0.9,0.4c-0.2,0-0.3,0-0.4,0.1l-0.1,0.1
				c-0.2,0.2-0.2,0.5,0,0.7l1.4,1.4c0.2,0.2,0.4,0.6,0.4,0.9c0,0.3-0.1,0.7-0.4,0.9l-4.3,4.3C13,24.2,12.7,24.3,12.3,24.3z
				 M8.1,15.2c0.2,0,0.5,0.1,0.6,0.2l0.1,0.1c0.3,0.3,0.3,0.9,0,1.2l-1.4,1.4c-0.3,0.3-0.3,0.9,0,1.3l4.3,4.3c0.3,0.3,0.9,0.3,1.3,0
				l4.3-4.3c0.2-0.2,0.3-0.4,0.3-0.6c0-0.2-0.1-0.5-0.3-0.6l-1.4-1.4c-0.2-0.2-0.2-0.4-0.2-0.6c0-0.2,0.1-0.4,0.2-0.6l0.1-0.1
				c0.2-0.2,0.4-0.2,0.7-0.2c0.2,0,0.5-0.1,0.6-0.2c0.2-0.2,0.3-0.4,0.2-0.7c0-0.3-0.2-0.5-0.4-0.6c-0.3-0.2-0.6-0.2-0.9,0
				c-0.3,0.2-0.4,0.4-0.4,0.8c0,0.3-0.1,0.5-0.2,0.7l-0.1,0.1c-0.3,0.3-0.9,0.3-1.2,0L13,13.8c-0.3-0.3-0.9-0.3-1.3,0l-1.4,1.4
				c-0.3,0.3-0.9,0.3-1.2,0L9.1,15c-0.2-0.2-0.3-0.4-0.2-0.7c0-0.3-0.1-0.6-0.4-0.8c-0.3-0.2-0.6-0.2-0.9,0l0,0
				c-0.2,0.1-0.4,0.4-0.4,0.6c0,0.3,0.1,0.5,0.2,0.7C7.5,15.1,7.8,15.2,8.1,15.2C8,15.2,8,15.2,8.1,15.2z"/>
		</g>
	</g>
</g>
</svg>
