<?xml version="1.0" encoding="utf-8"?>
<!-- Generator: Adobe Illustrator 25.0.0, SVG Export Plug-In . SVG Version: 6.00 Build 0)  -->
<svg version="1.1" id="Livello_1" xmlns="http://www.w3.org/2000/svg" xmlns:xlink="http://www.w3.org/1999/xlink" x="0px" y="0px"
	 viewBox="0 0 24.7 24.7" style="enable-background:new 0 0 24.7 24.7;" xml:space="preserve">
<style type="text/css">
	.st0{fill:#304269;}
</style>
<g>
	<g>
		<path class="st0" d="M16.9,24.1L6.8,21.5l0-0.2c0.7-2.9,0.2-5.8-1.2-7.4c-1.3-1.5-1.5-4.6-1.5-4.8c-0.1-6.5,6-8.2,6.1-8.2
			c0.2-0.1,4.4-1.4,8.3,1.1C22.5,4.5,22,9,22,9.1l-0.3,1l2,3.2c0.1,0.3,0.1,0.6-0.2,0.7l-1.2,0.7c0.2,0.2,0.3,0.4,0.3,0.6
			c0,0.4-0.3,0.7-0.5,0.8c0,0.1,0.1,0.2,0.1,0.3c0,0.3-0.3,0.6-0.4,0.7c0,0.5,0.2,0.9,0.2,1l0,0.1c0.1,1.1-0.6,1.7-1,1.9
			c-0.1,0-1.8,0.4-2.8,0.5c-0.8,0.1-0.8,0.5-0.8,0.5c-0.1,1.7-0.5,3-0.5,3L16.9,24.1z M7.4,21.2l9.3,2.4c0.1-0.4,0.4-1.5,0.4-2.7
			c0-0.3,0.3-0.9,1.3-0.9c1-0.1,2.7-0.4,2.7-0.4c0,0,0.7-0.3,0.6-1.3c-0.1-0.1-0.3-0.6-0.2-1.2l0-0.1l0.1-0.1
			c0.1-0.1,0.3-0.3,0.3-0.4c0,0,0-0.1-0.1-0.1L21.5,16l0.4-0.1c0,0,0.4-0.2,0.4-0.6c0-0.1-0.1-0.2-0.2-0.4c-0.1-0.1-0.1-0.2-0.1-0.3
			c0-0.1,0.1-0.2,0.2-0.3l1.3-0.7c0,0,0-0.1,0-0.1l-2.1-3.3L21.6,9c0,0,0.4-4.3-3.2-6.6c-3.7-2.3-7.9-1-8-1C10.1,1.5,4.6,3,4.7,9.1
			c0,0,0.1,3.1,1.4,4.5C7.5,15.3,8,18.2,7.4,21.2z"/>
	</g>
	<path class="st0" d="M12.2,8.4H9.8v1h2.4c0.2,0.4,0.6,0.7,1.1,0.7c0.7,0,1.2-0.5,1.2-1.2S14,7.7,13.3,7.7C12.8,7.7,12.4,8,12.2,8.4
		z"/>
	<path class="st0" d="M13.5,5.8c0.1,0.1,0.3,0.1,0.4,0.1c0.7,0,1.2-0.5,1.2-1.2c0-0.7-0.5-1.2-1.2-1.2c-0.7,0-1.2,0.5-1.2,1.2
		c0,0.2,0,0.3,0.1,0.4l-1.4,1.4H9.9v1h1.9L13.5,5.8z"/>
	<rect x="1" y="6.5" class="st0" width="7.9" height="1"/>
	<path class="st0" d="M13.9,11.9c-0.2,0-0.3,0-0.4,0.1l-1.7-1.7H9.9v1h1.5l1.4,1.4c-0.1,0.1-0.1,0.3-0.1,0.4c0,0.7,0.5,1.2,1.2,1.2
		c0.7,0,1.2-0.5,1.2-1.2C15.1,12.4,14.5,11.9,13.9,11.9z"/>
	<rect x="1" y="10.3" class="st0" width="7.9" height="1"/>
	<rect x="2.1" y="8.4" class="st0" width="7" height="1"/>
</g>
</svg>
