<?xml version="1.0" encoding="utf-8"?>
<!-- Generator: Adobe Illustrator 25.0.0, SVG Export Plug-In . SVG Version: 6.00 Build 0)  -->
<svg version="1.1" id="Livello_1" xmlns="http://www.w3.org/2000/svg" xmlns:xlink="http://www.w3.org/1999/xlink" x="0px" y="0px"
	 viewBox="0 0 24.7 24.7" style="enable-background:new 0 0 24.7 24.7;" xml:space="preserve">
<style type="text/css">
	.st0{fill:#304269;}
</style>
<g>
	<g>
		<path class="st0" d="M10.9,22.6C5.3,22.6,0.6,18,0.6,12.3S5.3,2,10.9,2c4.5,0,8.4,2.8,9.8,7.1c0,0.1,0,0.2-0.1,0.3
			c-0.1,0-0.2,0-0.3-0.1c-1.3-4.1-5.1-6.8-9.4-6.8C5.5,2.4,1,6.9,1,12.3s4.4,9.9,9.9,9.9c2.5,0,5-1,6.8-2.7c0.1-0.1,0.2-0.1,0.3,0
			c0.1,0.1,0.1,0.2,0,0.3C16.1,21.6,13.6,22.6,10.9,22.6z"/>
	</g>
	<g>
		<g>
			<path class="st0" d="M24,19.2h-9.7c-0.1,0-0.1,0-0.2-0.1c0-0.1,0-0.1,0-0.2c1-1.7,1.5-3.6,1.5-5.6v-0.5c0-1.9,1.6-3.5,3.5-3.5
				c1.9,0,3.5,1.6,3.5,3.5v0.5c0,2,0.5,3.9,1.5,5.6c0,0.1,0,0.1,0,0.2C24.1,19.2,24,19.2,24,19.2z M14.7,18.8h9
				c-0.9-1.7-1.4-3.6-1.4-5.5v-0.5c0-1.7-1.4-3.1-3.1-3.1c-1.7,0-3.1,1.4-3.1,3.1v0.5C16.1,15.2,15.6,17.1,14.7,18.8z"/>
		</g>
		<g>
			<path class="st0" d="M21.2,20.3c-0.7,0-1.3-0.6-1.3-1.3c0-0.1,0.1-0.2,0.2-0.2c0.1,0,0.2,0.1,0.2,0.2c0,0.5,0.4,0.9,0.9,0.9
				c0.5,0,0.9-0.4,0.9-0.9c0-0.1,0.1-0.2,0.2-0.2s0.2,0.1,0.2,0.2C22.5,19.7,21.9,20.3,21.2,20.3z"/>
		</g>
	</g>
	<g>
		<path class="st0" d="M10.7,12.5H5.4c-0.1,0-0.2-0.1-0.2-0.2c0-0.1,0.1-0.2,0.2-0.2h5.3c0.1,0,0.2,0.1,0.2,0.2
			C10.9,12.4,10.8,12.5,10.7,12.5z"/>
	</g>
	<g>
		<path class="st0" d="M10.7,12.5c-0.1,0-0.2-0.1-0.2-0.2V4.2c0-0.1,0.1-0.2,0.2-0.2c0.1,0,0.2,0.1,0.2,0.2v8.1
			C10.9,12.4,10.8,12.5,10.7,12.5z"/>
	</g>
</g>
</svg>
